<?xml version="1.0" encoding="UTF-8"?>
<svg id="_レイヤー_2" data-name="レイヤー 2" xmlns="http://www.w3.org/2000/svg" xmlns:xlink="http://www.w3.org/1999/xlink" viewBox="0 0 390 80">
  <defs>
    <style>
      .cls-1 {
        fill: none;
      }

      .cls-2 {
        fill: #19a0db;
      }

      .cls-3 {
        clip-path: url(#clippath);
      }
    </style>
    <clipPath id="clippath">
      <rect class="cls-1" width="390" height="80"/>
    </clipPath>
  </defs>
  <g id="_書き出し用" data-name="書き出し用">
    <g class="cls-3">
      <g>
        <g>
          <path d="M44.335561,39.131666l.055674-5.704281c.064848-6.644274-5.146715-12.243467-11.789099-12.405506-6.785452-.165529-12.375867,5.259225-12.441829,12.019747l-.000053.000052c-.065289,6.691624,5.306381,12.157868,11.998126,12.209364l5.90388.045387c2.924883.022485,5.272817,2.411757,5.244257,5.336587l-.036995,3.788675c-.054091,5.523424,4.380012,10.035594,9.903642,10.078005,5.523681.042569,10.045179-4.400702,10.099064-9.924337.053988-5.523529-4.380116-10.035699-9.903642-10.078005l-3.788768-.029127c-2.924873-.022485-5.272803-2.411742-5.244257-5.336562Z"/>
          <path class="cls-2" d="M63.016284,39.436412c6.695461-1.423155,10.911488-8.127949,9.213728-14.825995-1.5803-6.234639-8.020449-10.208545-14.305174-8.840958-2.5239.549213-4.689452,1.850777-6.314607,3.618796-4.72475,5.140095-10.274155,9.454549-16.667223,12.260349l-.00002.000009c-1.370783.601612-.935465,2.649613.561505,2.641662l.003115-.000017c7.01226-.037245,13.839748,1.721695,20.296263,4.457858,2.199782.932231,4.696616,1.223041,7.212411.688296Z"/>
        </g>
        <g>
          <path d="M347.53296,17.692657c-12.299988,0-22.307373,10.007385-22.307373,22.307373s10.007385,22.307312,22.307373,22.307312,22.307373-10.007324,22.307373-22.307312-10.007385-22.307373-22.307373-22.307373ZM347.53296,56.153595c-8.907593,0-16.153625-7.245972-16.153625-16.153564,0-8.907654,7.246033-16.153625,16.153625-16.153625s16.153625,7.245972,16.153625,16.153625c0,8.907593-7.246033,16.153564-16.153625,16.153564Z"/>
          <path d="M112.898195,17.692657c-.67688,0-1.353821.046143-2.015381.107727-.169189.015381-.33844.030762-.507629.046143-.630798.076904-1.261536.169189-1.876892.292297-.061584,0-.123108.030762-.184631.046143-.584595.123047-1.153809.276917-1.723083.446167-.199951.061523-.399963.123047-.599976.18457-.49231.15387-.969177.338501-1.430725.523071-.246155.092346-.476929.200012-.707703.307678-.399963.16925-.784607.369263-1.169189.569275-.261536.138428-.50769.276917-.769226.415344-.276917.16925-.553833.33844-.83075.50769-.461548.292297-.907715.599976-1.33844.923096-.184631.138428-.369263.261475-.538452.399963-.307739.246155-.600037.49231-.892334.738464-.092285.092285-.199951.169189-.292297.261536-.599976.538452-1.18457,1.123047-1.723022,1.723022-.030762.046143-.076965.076904-.107727.123108-3.461487,3.938354-5.569153,9.076782-5.569153,14.707458l-.030762-.015381v37.691711h6.153748v-22.353455c1.50769,1.584534,3.246155,2.953796,5.169189,4.046082.030762,0,.046143.030762.076904.046143.584595.33844,1.200012.630737,1.815369.907654.061523.030762.123047.061584.200012.092346.584595.246155,1.169189.476868,1.769165.67688.107727.046143.230774.092346.338501.123108.569214.18457,1.138428.323059,1.723022.461487.15387.030823.307678.092346.476929.123108.569214.123047,1.138428.200012,1.723022.276917.184631.030762.353882.061523.538452.076904.769226.076904,1.538452.123108,2.323059.123108,12.307495.015381,22.307373-9.984497,22.307373-22.291992s-9.999878-22.307373-22.307373-22.307373ZM112.898195,56.153656c-8.907532,0-16.153625-7.246094-16.153625-16.153625,0-8.907593,7.246094-16.153625,16.153625-16.153625,8.907593,0,16.153625,7.246033,16.153625,16.153625,0,8.907532-7.246094,16.153625-16.153625,16.153625Z"/>
          <rect x="146.659547" y="17.692657" width="6.153748" height="44.614685"/>
          <path d="M294.480836,17.692657c-12.299988,0-22.307373,10.007385-22.307373,22.307373s10.007385,22.307312,22.307373,22.307312c8.365784,0,15.911011-4.66803,19.721619-11.910828h-7.381958c-3.024658,3.587219-7.518188,5.75708-12.339661,5.75708-7.729797,0-14.388306-5.561768-15.841125-13.076721h37.942627l.073608-.688049c.087158-.818787.132202-1.62262.132202-2.388794,0-.766235-.045044-1.570007-.132202-2.388794-1.209412-11.35498-10.742004-19.918579-22.17511-19.918579ZM278.639711,36.923126c1.45282-7.514893,8.111328-13.076721,15.841125-13.076721,7.729736,0,14.388306,5.561829,15.841064,13.076721h-31.68219Z"/>
          <path d="M242.184938,23.846527c3.280273,0,13.983398.47168,13.983398,6.538086h6.154297c0-7.947266-7.52832-12.692383-20.137695-12.692383s-20.137695,4.745117-20.137695,12.692383,7.52832,12.692383,20.137695,12.692383c3.280273,0,13.983398.47168,13.983398,6.538086s-10.703125,6.538086-13.983398,6.538086-13.983398-.47168-13.983398-6.538086h-6.154297c0,7.947266,7.52832,12.692383,20.137695,12.692383s20.137695-4.745117,20.137695-12.692383-7.52832-12.692383-20.137695-12.692383c-4.204102,0-13.983398-.636719-13.983398-6.538086,0-6.066406,10.703125-6.538086,13.983398-6.538086Z"/>
          <path d="M208.491579,17.692657c-8.591675.004639-15.478821,5.031799-19.217773,11.460083-3.739075-6.428284-10.626465-11.455444-19.21875-11.460083h-.027039c-1.047852.000732-2.0672.083496-3.061707.22699v6.248413c.988098-.200195,2.011353-.321533,3.077026-.321533,9.519531,0,16.15332,8.512695,16.15332,16.15332s-6.633789,16.15332-16.15332,16.15332c-1.065674,0-2.088928-.121338-3.077026-.321533v6.248413c.993774.143433,2.012451.226074,3.059509.226929h.030884c8.591492-.005249,15.478271-5.032166,19.217102-11.460022,3.738708,6.427856,10.625244,11.454773,19.216125,11.460022h.030884c1.04718-.000854,2.065918-.083496,3.059814-.22699v-6.248413c-.98822.200256-2.011536.321594-3.077332.321594-7.639648,0-16.152344-6.633789-16.152344-16.15332s8.512695-16.15332,16.152344-16.15332c1.065796,0,2.089111.121338,3.077332.321594v-6.248413c-.994629-.143555-2.014099-.226318-3.062012-.227051h-.027039Z"/>
        </g>
      </g>
    </g>
  </g>
</svg>