<?xml version="1.0" encoding="UTF-8"?>
<svg id="_レイヤー_2" data-name="レイヤー 2" xmlns="http://www.w3.org/2000/svg" xmlns:xlink="http://www.w3.org/1999/xlink" viewBox="0 0 170 40">
  <defs>
    <style>
      .cls-1 {
        fill: none;
      }

      .cls-2 {
        clip-path: url(#clippath);
      }
    </style>
    <clipPath id="clippath">
      <rect class="cls-1" width="170" height="40"/>
    </clipPath>
  </defs>
  <g id="_書き出し用" data-name="書き出し用">
    <g class="cls-2">
      <g>
        <path d="M143.659169,8.846452c-6.150044,0-11.153777,5.003733-11.153777,11.153777s5.003733,11.153747,11.153777,11.153747,11.153777-5.003703,11.153777-11.153747-5.003733-11.153777-11.153777-11.153777ZM143.659169,28.077077c-4.453833,0-8.076878-3.623015-8.076878-8.076848,0-4.453863,3.623046-8.076878,8.076878-8.076878s8.076878,3.623015,8.076878,8.076878c0,4.453833-3.623046,8.076848-8.076878,8.076848Z"/>
        <path d="M26.340831,8.846452c-.338443,0-.676916.023071-1.007699.053864-.084595.00769-.169221.015381-.253817.023071-.315402.038452-.630773.084595-.938454.14615-.030792,0-.061554.015381-.092316.023071-.2923.061524-.576909.138459-.861549.223085-.099976.030762-.199983.061524-.29999.092286-.246157.076935-.484593.169252-.715368.261538-.123078.046173-.238466.100007-.353854.15384-.199983.084626-.392307.184633-.584599.28464-.130769.069214-.253847.138459-.384616.207674-.138459.084626-.276919.169221-.415378.253847-.230776.14615-.453861.29999-.669225.461552-.092316.069214-.184633.130738-.269228.199983-.153871.123078-.300021.246157-.446171.369235-.046143.046143-.099976.084595-.14615.130769-.29999.269228-.59229.561528-.861518.861518-.015381.023071-.038483.038452-.053864.061554-1.730757,1.969193-2.784599,4.538428-2.784599,7.353789l-.015381-.00769v18.846009h3.076899v-11.176818c.753851.792273,1.623091,1.47691,2.584616,2.023057.015381,0,.023071.015381.038452.023071.2923.169221.600011.315371.907692.453831.030762.015381.061524.030792.100007.046173.2923.123078.584599.238436.88459.338443.053864.023071.115388.046173.169252.061554.284609.092286.569218.161531.861518.230745.076935.015412.15384.046173.238466.061554.284609.061524.569218.100007.861518.138459.092316.015381.176942.030762.269228.038452.384616.038452.769232.061554,1.161539.061554,6.153798.00769,11.153777-4.992289,11.153777-11.146087s-4.99998-11.153777-11.153777-11.153777ZM26.340831,28.077107c-4.453802,0-8.076878-3.623076-8.076878-8.076878,0-4.453833,3.623076-8.076878,8.076878-8.076878,4.453833,0,8.076878,3.623046,8.076878,8.076878,0,4.453802-3.623076,8.076878-8.076878,8.076878Z"/>
        <rect x="43.221645" y="8.846452" width="3.076899" height="22.307524"/>
        <path d="M117.132891,8.846452c-6.150044,0-11.153777,5.003733-11.153777,11.153777s5.003733,11.153747,11.153777,11.153747c4.182926,0,7.95557-2.334034,9.86089-5.955462h-3.691009c-1.512341,1.793624-3.759125,2.878563-6.169881,2.878563-3.86493,0-7.194211-2.780906-7.920627-6.538414h18.971468l.036804-.344027c.043579-.409397.066102-.811316.066102-1.194407,0-.383121-.022522-.78501-.066102-1.194407-.604711-5.677536-5.371046-9.959371-11.087645-9.959371ZM109.212264,18.461764c.726416-3.757477,4.055697-6.538414,7.920627-6.538414,3.8649,0,7.194211,2.780937,7.920597,6.538414h-15.841224Z"/>
        <path d="M90.984729,11.923411c1.64015,0,6.991756.235842,6.991756,3.26907h3.077173c0-3.973665-3.764191-6.346243-10.06893-6.346243s-10.06893,2.372578-10.06893,6.346243,3.764191,6.346243,10.06893,6.346243c1.64015,0,6.991756.235842,6.991756,3.26907s-5.351606,3.26907-6.991756,3.26907-6.991756-.235842-6.991756-3.26907h-3.077173c0,3.973665,3.764191,6.346243,10.06893,6.346243s10.06893-2.372578,10.06893-6.346243-3.764191-6.346243-10.06893-6.346243c-2.102068,0-6.991756-.318362-6.991756-3.26907,0-3.033228,5.351606-3.26907,6.991756-3.26907Z"/>
        <path d="M74.137912,8.846452c-4.295872.002319-7.739473,2.51592-9.608965,5.730088-1.869553-3.214168-5.313276-5.727769-9.609453-5.730088h-.013519c-.52393.000366-1.033608.041748-1.530866.113496v3.124232c.494053-.100098,1.005684-.160768,1.538526-.160768,4.759804,0,8.076726,4.256382,8.076726,8.076726s-3.316922,8.076726-8.076726,8.076726c-.532841,0-1.044473-.060669-1.538526-.160768v3.124232c.496891.071717,1.006234.113038,1.529767.113465h.015442c4.295781-.002625,7.739199-2.516103,9.608629-5.730058,1.869369,3.213954,5.312665,5.727433,9.608141,5.730058h.015442c.523594-.000427,1.032967-.041748,1.52992-.113496v-3.124232c-.494114.100129-1.005776.160798-1.538678.160798-3.819855,0-8.076238-3.316922-8.076238-8.076726s4.256382-8.076726,8.076238-8.076726c.532902,0,1.044564.060669,1.538678.160798v-3.124232c-.497319-.071778-1.007058-.11316-1.531018-.113526h-.013519Z"/>
      </g>
    </g>
  </g>
</svg>