<?xml version="1.0" encoding="UTF-8"?>
<svg id="_レイヤー_2" data-name="レイヤー 2" xmlns="http://www.w3.org/2000/svg" xmlns:xlink="http://www.w3.org/1999/xlink" viewBox="0 0 230 230">
  <defs>
    <style>
      .cls-1 {
        fill: none;
      }

      .cls-2 {
        fill: #19a0db;
      }

      .cls-3 {
        clip-path: url(#clippath);
      }
    </style>
    <clipPath id="clippath">
      <rect class="cls-1" width="230" height="230"/>
    </clipPath>
  </defs>
  <g id="_書き出し用" data-name="書き出し用">
    <g class="cls-3">
      <g>
        <g>
          <path d="M193.212225,146.231534c-8.200059,0-14.871703,6.671644-14.871703,14.871703s6.671644,14.871662,14.871703,14.871662,14.871703-6.671604,14.871703-14.871662-6.671644-14.871703-14.871703-14.871703ZM193.212225,171.872368c-5.938444,0-10.769171-4.830687-10.769171-10.769131,0-5.938484,4.830728-10.769171,10.769171-10.769171s10.769171,4.830687,10.769171,10.769171c0,5.938444-4.830728,10.769131-10.769171,10.769131Z"/>
          <path d="M36.787775,146.231534c-.451257,0-.902555.030762-1.343598.071819-.112794.010254-.225628.020508-.338422.030762-.420536.05127-.841031.112794-1.251272.194866-.041057,0-.082073.020508-.123089.030762-.389733.082032-.769212.184613-1.148732.297447-.133302.041016-.266644.082032-.399987.123048-.328209.102581-.646123.225669-.953824.348717-.164105.061565-.317955.133343-.471806.20512-.266644.112835-.523076.246177-.779466.37952-.174359.092286-.338463.184613-.512822.276898-.184613.112835-.369225.225628-.553838.338463-.307701.194866-.605148.399987-.892301.615402-.123089.092286-.246177.174318-.358971.266644-.205161.164105-.400028.328209-.594894.492314-.061524.061524-.133302.112794-.194866.174359-.399987.358971-.78972.748704-1.148691,1.148691-.020508.030762-.051311.05127-.071819.082073-2.307677,2.625591-3.712799,6.051237-3.712799,9.805052l-.020508-.010254v25.128012h4.102532v-14.902424c1.005135,1.056364,2.164121,1.969214,3.446154,2.69741.020508,0,.030762.020508.05127.030762.389733.225628.800015.420495,1.210256.605107.041016.020508.082032.041057.133343.061565.389733.164105.779466.317914,1.179453.451257.071819.030762.153851.061565.225669.082073.379479.123048.758958.215374,1.148691.30766.102581.020549.20512.061565.317955.082073.379479.082032.758958.133343,1.148691.184613.123089.020508.235923.041016.358971.05127.512822.05127,1.025643.082073,1.548719.082073,8.205064.010254,14.871703-6.656386,14.871703-14.861449s-6.66664-14.871703-14.871703-14.871703ZM36.787775,171.872408c-5.938403,0-10.769171-4.830768-10.769171-10.769171,0-5.938444,4.830768-10.769171,10.769171-10.769171,5.938444,0,10.769171,4.830728,10.769171,10.769171,0,5.938403-4.830768,10.769171-10.769171,10.769171Z"/>
          <rect x="59.295526" y="146.231534" width="4.102532" height="29.743365"/>
          <path d="M157.843855,146.231534c-8.200059,0-14.871703,6.671644-14.871703,14.871703s6.671644,14.871662,14.871703,14.871662c5.577235,0,10.607427-3.112045,13.147853-7.940616h-4.921345c-2.016455,2.391499-5.012166,3.838085-8.226507,3.838085-5.15324,0-9.592282-3.707875-10.560836-8.717885h25.29529l.049073-.458703c.058106-.545862.088135-1.081755.088135-1.592542,0-.510828-.03003-1.04668-.088135-1.592542-.806281-7.570049-7.161395-13.279161-14.783527-13.279161ZM147.283018,159.051951c.968554-5.009969,5.407596-8.717885,10.560836-8.717885,5.153199,0,9.592282,3.707916,10.560796,8.717885h-21.121632Z"/>
          <path d="M122.979639,150.334147c2.186867,0,9.322341.314456,9.322341,4.358759h4.102898c0-5.29822-5.018921-8.461657-13.425239-8.461657s-13.425239,3.163437-13.425239,8.461657,5.018921,8.461657,13.425239,8.461657c2.186867,0,9.322341.314456,9.322341,4.358759s-7.135475,4.358759-9.322341,4.358759-9.322341-.314456-9.322341-4.358759h-4.102898c0,5.29822,5.018921,8.461657,13.425239,8.461657s13.425239-3.163437,13.425239-8.461657-5.018921-8.461657-13.425239-8.461657c-2.802757,0-9.322341-.424483-9.322341-4.358759,0-4.044304,7.135475-4.358759,9.322341-4.358759Z"/>
          <path d="M100.517216,146.231534c-5.72783.003092-10.319298,3.35456-12.811953,7.640118-2.492737-4.285557-7.084368-7.637025-12.812604-7.640118h-.018026c-.698573.000488-1.378144.055665-2.041154.151328v4.165643c.658737-.133465,1.340913-.214357,2.051368-.214357,6.346406,0,10.768968,5.675176,10.768968,10.768968s-4.422562,10.768968-10.768968,10.768968c-.710455,0-1.39263-.080893-2.051368-.214357v4.165643c.662522.095623,1.341645.150717,2.039689.151287h.020589c5.727708-.003499,10.318932-3.354804,12.811506-7.640077,2.492493,4.285273,7.083554,7.636577,12.810855,7.640077h.020589c.698126-.00057,1.37729-.055665,2.039893-.151328v-4.165643c-.658819.133505-1.341035.214398-2.051571.214398-5.09314,0-10.768317-4.422562-10.768317-10.768968s5.675176-10.768968,10.768317-10.768968c.710536,0,1.392752.080893,2.051571.214398v-4.165643c-.663091-.095704-1.342744-.15088-2.041358-.151368h-.018026Z"/>
        </g>
        <g>
          <path d="M111.657177,82.351063l.090896-9.313111c.105875-10.847794-8.402799-19.989334-19.247508-20.253887-11.078289-.270251-20.205497,8.586489-20.31319,19.624077l-.000086.000085c-.106595,10.925101,8.66348,19.84958,19.588777,19.933655l9.638988.074101c4.775319.036711,8.608681,3.937562,8.562052,8.712795l-.0604,6.185592c-.088312,9.017835,7.15104,16.384643,16.169212,16.453886,9.018255.0695,16.400293-7.184819,16.488267-16.202998.088143-9.018007-7.151209-16.384815-16.169212-16.453886l-6.185744-.047554c-4.775304-.036711-8.608659-3.937537-8.562052-8.712754Z"/>
          <path class="cls-2" d="M142.156316,82.848607c10.931365-2.323518,17.814675-13.27012,15.042821-24.205707-2.580081-10.179002-13.094611-16.667013-23.355387-14.434218-4.120653.896674-7.656248,3.021677-10.309562,5.908239-7.713877,8.391991-16.77413,15.435998-27.211792,20.016897l-.000032.000014c-2.238013.982223-1.527289,4.325899.916743,4.312918l.005086-.000027c11.448588-.060809,22.595507,2.810931,33.136756,7.278135,3.591481,1.52201,7.667944,1.996802,11.775365,1.123749Z"/>
        </g>
      </g>
    </g>
  </g>
</svg>