<?xml version="1.0" encoding="UTF-8"?>
<svg id="_レイヤー_2" data-name="レイヤー 2" xmlns="http://www.w3.org/2000/svg" xmlns:xlink="http://www.w3.org/1999/xlink" viewBox="0 0 73 72.999967">
  <defs>
    <style>
      .cls-1 {
        fill: none;
      }

      .cls-2 {
        fill: #19a0db;
      }

      .cls-3 {
        clip-path: url(#clippath);
      }
    </style>
    <clipPath id="clippath">
      <rect class="cls-1" width="73" height="72.999967"/>
    </clipPath>
  </defs>
  <g id="_書き出し用" data-name="書き出し用">
    <g class="cls-3">
      <g>
        <path d="M34.452521,35.63165l.055674-5.704281c.064848-6.644274-5.146715-12.243467-11.789099-12.405506-6.785452-.165529-12.375867,5.259225-12.441829,12.019747l-.000053.000052c-.065289,6.691624,5.306381,12.157868,11.998126,12.209364l5.90388.045387c2.924883.022485,5.272817,2.411757,5.244257,5.336587l-.036995,3.788675c-.054091,5.523424,4.380012,10.035594,9.903642,10.078005,5.523681.042569,10.045179-4.400702,10.099064-9.924337.053988-5.523529-4.380116-10.035699-9.903642-10.078005l-3.788768-.029127c-2.924873-.022485-5.272803-2.411742-5.244257-5.336562Z"/>
        <path class="cls-2" d="M53.133244,35.936395c6.695461-1.423155,10.911488-8.127949,9.213728-14.825995-1.5803-6.234639-8.020449-10.208545-14.305174-8.840958-2.5239.549213-4.689452,1.850777-6.314607,3.618796-4.72475,5.140095-10.274155,9.454549-16.667223,12.260349l-.00002.000009c-1.370783.601612-.935465,2.649613.561505,2.641662l.003115-.000017c7.01226-.037245,13.839748,1.721695,20.296263,4.457858,2.199782.932231,4.696616,1.223041,7.212411.688296Z"/>
      </g>
    </g>
  </g>
</svg>